<svg xmlns="http://www.w3.org/2000/svg" xmlns:xlink="http://www.w3.org/1999/xlink" width="800" zoomAndPan="magnify" viewBox="0 0 600 599.999999" height="800" preserveAspectRatio="xMidYMid meet" version="1.0"><path fill="#ad8331" d="M 211.742188 82.945312 C 211.480469 83.628906 211.265625 85.207031 211.265625 86.457031 C 211.265625 89.804688 205.765625 105.921875 201.101562 116.246094 C 189.769531 141.324219 170.855469 173.007812 138.054688 221.867188 C 128.773438 235.683594 118.617188 251.410156 115.476562 256.808594 C 95.425781 291.285156 86.722656 319.265625 89.414062 340.570312 C 92.136719 362.148438 102.484375 375.578125 121.355469 382.050781 C 123.898438 382.921875 128.886719 383.542969 135.492188 383.808594 C 144.320312 384.164062 146.523438 383.992188 151.816406 382.539062 C 168.792969 377.878906 186.550781 364.8125 209.5 340.101562 C 214.945312 334.238281 223.308594 325.207031 228.089844 320.03125 C 248.09375 298.382812 259.695312 288.363281 271.722656 282.339844 C 278.839844 278.773438 284.4375 277.234375 290.414062 277.203125 L 294.105469 277.183594 L 282.660156 265.902344 C 276.367188 259.699219 269.652344 253.8125 267.742188 252.816406 C 259.535156 248.546875 250.46875 248.632812 241.335938 253.066406 C 235.558594 255.875 227.375 263.460938 213.175781 279.183594 C 177.074219 319.15625 154.355469 339.042969 139.253906 343.894531 C 131.160156 346.496094 123.21875 346.070312 118.460938 342.777344 C 113.75 339.515625 110.285156 332.5625 109.578125 324.941406 C 108.339844 311.601562 114.070312 289.554688 124.539062 267.410156 C 131.253906 253.195312 149.878906 220.609375 171.171875 185.824219 C 192.234375 151.410156 209.597656 114.667969 214.40625 94.332031 C 215.339844 90.375 215.492188 90.183594 216.546875 91.582031 C 218.535156 94.230469 228.1875 113.917969 233.0625 125.285156 C 239.265625 139.742188 250.242188 165.941406 256.425781 181.035156 C 257.839844 184.488281 266.320312 204.808594 275.273438 226.183594 C 284.226562 247.5625 292.390625 267.085938 293.417969 269.566406 L 297.148438 278.597656 C 300.457031 286.601562 312.292969 314.996094 316.871094 325.90625 C 319.316406 331.738281 324.617188 344.457031 328.644531 354.175781 C 332.671875 363.890625 337.347656 375.023438 339.03125 378.910156 L 342.089844 385.976562 L 367.960938 386.179688 L 393.828125 386.382812 L 395.511719 378.71875 C 400.964844 353.875 426.28125 307.578125 466.292969 249.273438 C 485.082031 221.898438 495.574219 204.269531 503.765625 186.308594 C 512.710938 166.6875 516.714844 151.039062 516.714844 135.65625 C 516.71875 118.933594 512.570312 107.492188 502.976562 97.734375 C 494.96875 89.589844 485.746094 85.625 471.957031 84.402344 C 457.03125 83.074219 440.199219 89.449219 423.109375 102.90625 C 414.890625 109.371094 397.585938 126.5625 383.96875 141.773438 C 361.441406 166.949219 348.367188 178.710938 335.0625 185.789062 C 328.222656 189.429688 319.335938 191.957031 315.109375 191.460938 C 313.707031 191.296875 312.558594 191.382812 312.558594 191.648438 C 312.558594 191.914062 316.886719 196.410156 322.175781 201.640625 C 338.257812 217.539062 340.210938 218.710938 350.640625 218.71875 C 356.835938 218.722656 358.339844 218.433594 362.8125 216.375 C 368.105469 213.9375 374.921875 208.953125 378.785156 204.695312 L 387.421875 195.175781 C 417.664062 161.851562 439.277344 140.800781 451.9375 132.335938 C 462.5 125.273438 475.238281 121.386719 481.847656 123.210938 C 487.019531 124.640625 491.152344 128.160156 493.664062 133.273438 C 495.8125 137.65625 495.90625 138.308594 495.882812 148.839844 C 495.859375 158.21875 495.550781 160.988281 493.761719 167.683594 C 486.949219 193.195312 478.394531 210.226562 441.570312 271.574219 C 411.125 322.296875 398.347656 348.265625 392.304688 371.722656 L 390.515625 378.667969 L 388.914062 376.039062 C 386.605469 372.257812 376.761719 352.390625 373.996094 345.929688 C 370.679688 338.191406 367.21875 329.929688 358.050781 307.847656 C 353.046875 295.800781 348.03125 283.761719 343.003906 271.726562 C 339.121094 262.441406 334.785156 252.019531 333.367188 248.5625 C 331.949219 245.109375 324.882812 228.148438 317.664062 210.871094 C 310.445312 193.597656 302.859375 175.398438 300.808594 170.433594 C 297.90625 163.414062 274.976562 108.625 265.234375 85.433594 L 263.664062 81.703125 L 237.941406 81.703125 C 215.210938 81.703125 212.164062 81.847656 211.742188 82.945312 M 250.917969 424.0625 C 245.863281 425.652344 242.011719 431.082031 241.195312 437.769531 L 240.710938 441.726562 L 236.539062 441.964844 C 233.113281 442.164062 232.414062 442.445312 232.621094 443.535156 C 232.804688 444.507812 233.929688 444.972656 236.792969 445.261719 L 240.710938 445.652344 L 240.710938 481.519531 L 238.664062 483.21875 C 237.539062 484.152344 235.949219 485.335938 235.132812 485.851562 C 233.941406 486.597656 236.210938 486.792969 246.402344 486.832031 C 253.421875 486.859375 259.164062 486.707031 259.164062 486.496094 C 259.164062 486.285156 257.851562 485.566406 256.25 484.894531 C 250.320312 482.417969 250.527344 483.195312 250.527344 463.199219 L 250.527344 445.261719 L 256.414062 445.261719 C 261.78125 445.261719 262.304688 445.121094 262.304688 443.691406 C 262.304688 442.261719 261.78125 442.121094 256.414062 442.121094 L 250.527344 442.121094 L 250.53125 437.210938 C 250.53125 431.273438 252.410156 427.601562 255.828125 426.851562 C 260.996094 425.714844 264.394531 429.351562 263.628906 435.199219 C 263.421875 436.792969 263.449219 438.292969 263.691406 438.53125 C 264.207031 439.050781 270.089844 429.609375 270.128906 428.199219 C 270.21875 425.136719 256.738281 422.234375 250.917969 424.0625 M 92.140625 425.6875 C 95.566406 427.511719 96.828125 430.054688 95.890625 433.234375 C 94.800781 436.914062 79.308594 475.226562 77.324219 479.144531 C 76.304688 481.152344 74.3125 483.710938 72.894531 484.828125 C 71.476562 485.945312 70.761719 486.875 71.300781 486.894531 C 76.914062 487.101562 91.363281 486.902344 91.648438 486.617188 C 91.851562 486.414062 90.761719 485.835938 89.226562 485.328125 C 83.1875 483.335938 82.054688 478.945312 85.519531 470.976562 L 87.144531 467.246094 L 101.277344 467.246094 C 117.296875 467.246094 115.640625 466.515625 118.496094 474.878906 C 120.457031 480.636719 119.933594 483.011719 116.285156 484.898438 C 114.972656 485.578125 113.898438 486.386719 113.898438 486.703125 C 113.894531 487.015625 119.457031 487.164062 126.25 487.035156 L 138.605469 486.796875 L 136.09375 485.207031 C 134.710938 484.332031 132.882812 482.488281 132.03125 481.105469 C 130.667969 478.898438 123.175781 460.265625 112.722656 433.089844 L 109.402344 424.453125 L 99.28125 424.277344 L 89.164062 424.101562 Z M 164.066406 440.746094 C 157.484375 449.921875 149.863281 460.511719 147.132812 464.273438 C 144.402344 468.039062 142.164062 471.308594 142.164062 471.539062 C 142.164062 471.769531 149.761719 471.957031 159.046875 471.957031 L 175.929688 471.957031 L 175.929688 477.003906 C 175.929688 481.496094 175.707031 482.230469 173.902344 483.648438 C 172.785156 484.523438 171.191406 485.460938 170.359375 485.722656 C 166.792969 486.855469 170.253906 487.253906 181.546875 487.015625 L 193.597656 486.761719 L 190.675781 485.242188 C 186.945312 483.300781 186.136719 481.714844 186.136719 476.328125 L 186.136719 471.957031 L 201.058594 471.957031 L 201.003906 462.730469 C 200.964844 455.550781 200.769531 453.941406 200.128906 455.46875 C 199.679688 456.546875 198.742188 458.808594 198.050781 460.492188 C 196.535156 464.167969 193.097656 466.453125 189.082031 466.457031 L 186.136719 466.460938 L 186.136719 424.058594 L 176.035156 424.058594 Z M 273.433594 425.066406 C 274.15625 425.59375 275.835938 426.625 277.164062 427.359375 L 279.578125 428.699219 L 279.578125 454.890625 C 279.578125 483.402344 279.746094 482.332031 274.867188 485.234375 C 272.753906 486.492188 272.484375 486.878906 273.691406 486.894531 C 285.773438 487.066406 295.425781 486.996094 295.683594 486.738281 C 295.863281 486.5625 294.824219 485.78125 293.382812 485.003906 C 291.9375 484.226562 290.363281 482.722656 289.878906 481.664062 C 289.285156 480.359375 289.003906 470.738281 289.003906 451.898438 L 289.003906 424.058594 L 280.5625 424.085938 C 273.726562 424.105469 272.371094 424.292969 273.433594 425.066406 M 424.3125 424.992188 C 421.75 426.234375 420.503906 429.800781 421.660156 432.59375 C 424.175781 438.660156 432.699219 436.871094 432.699219 430.277344 C 432.699219 428.011719 432.210938 426.933594 430.628906 425.6875 C 428.355469 423.902344 426.902344 423.742188 424.3125 424.992188 M 516.46875 430.925781 C 515.234375 434.324219 509.847656 440.226562 506.234375 442.144531 C 504.226562 443.210938 502.582031 444.347656 502.582031 444.671875 C 502.582031 444.996094 503.820312 445.261719 505.332031 445.261719 L 508.078125 445.261719 L 508.082031 459.984375 C 508.085938 468.082031 508.453125 476.019531 508.898438 477.628906 C 510.144531 482.109375 513.136719 485.117188 517.703125 486.472656 C 521.90625 487.71875 532.835938 488.113281 533.5 487.039062 C 533.710938 486.695312 531.445312 485.785156 528.460938 485.015625 C 522.390625 483.453125 519.71875 481.09375 518.320312 476.058594 C 517.875 474.449219 517.507812 466.863281 517.507812 459.199219 L 517.5 445.261719 L 524.960938 445.261719 C 531.851562 445.261719 532.421875 445.144531 532.421875 443.71875 C 532.421875 442.316406 531.773438 442.160156 525.15625 441.953125 L 517.894531 441.726562 L 517.5 435.445312 C 517.21875 430.945312 516.925781 429.664062 516.46875 430.925781 M 168.867188 440.273438 C 152.628906 462.933594 150.695312 465.910156 151.746094 466.613281 C 153.203125 467.589844 175.257812 467.085938 175.648438 466.066406 C 175.820312 465.617188 175.867188 457.535156 175.75 448.105469 L 175.539062 430.964844 Z M 95.085938 446.605469 C 91.941406 454.71875 89.195312 461.800781 88.984375 462.339844 C 88.6875 463.101562 91.46875 463.320312 101.335938 463.320312 C 111.199219 463.320312 113.980469 463.101562 113.683594 462.339844 C 108.785156 449.777344 101.863281 432.941406 101.40625 432.472656 C 101.074219 432.132812 98.230469 438.492188 95.085938 446.605469 M 322.65625 442.425781 C 317.53125 444.257812 314.566406 446.433594 311.992188 450.257812 C 308.871094 454.886719 307.859375 458.386719 307.851562 464.550781 C 307.839844 478.921875 316.464844 487.796875 330.617188 487.980469 C 341.242188 488.117188 348.492188 483.984375 352.632812 475.4375 C 355.257812 470.011719 355.308594 459.960938 352.738281 454.292969 C 348.820312 445.652344 341.570312 441.304688 331.179688 441.371094 C 328.0625 441.386719 324.226562 441.863281 322.65625 442.425781 M 391.21875 442.65625 C 389.785156 443.363281 387.753906 445.203125 386.703125 446.746094 L 384.800781 449.550781 L 384.800781 442.121094 L 376.359375 442.15625 L 367.917969 442.1875 L 370.835938 443.730469 C 372.445312 444.578125 374.121094 445.953125 374.566406 446.785156 C 375.792969 449.082031 375.640625 480.742188 374.394531 482.339844 C 373.855469 483.035156 372.234375 484.296875 370.796875 485.152344 C 369.355469 486.007812 368.472656 486.832031 368.832031 486.988281 C 369.191406 487.144531 375.140625 487.09375 382.050781 486.878906 L 394.613281 486.484375 L 390.882812 485.046875 C 385.109375 482.816406 384.796875 481.992188 384.804688 468.839844 C 384.808594 455.65625 385.542969 452.210938 389.121094 448.636719 C 391.914062 445.839844 394.542969 445.351562 397.015625 447.164062 C 398.324219 448.125 398.535156 449.238281 398.511719 455.003906 C 398.496094 458.703125 398.710938 461.46875 398.992188 461.148438 C 400.300781 459.652344 406.03125 444.902344 405.667969 443.957031 C 404.625 441.242188 395.714844 440.441406 391.21875 442.65625 M 460.605469 442.535156 C 456.484375 444.109375 454.0625 446.496094 453 450.046875 C 451.667969 454.488281 452.765625 458.523438 456.199219 461.789062 C 459.105469 464.554688 460.320312 465.023438 475.171875 469.140625 C 483.179688 471.363281 486.320312 475.863281 483.054688 480.449219 C 481.113281 483.175781 476.949219 484.523438 470.453125 484.523438 C 460.972656 484.523438 456.308594 480.238281 454.992188 470.316406 C 454.707031 468.167969 454.324219 466.558594 454.140625 466.742188 C 453.734375 467.148438 451.578125 481.109375 451.558594 483.464844 C 451.539062 485.707031 454.53125 486.710938 464.539062 487.808594 C 471.363281 488.558594 473.28125 488.488281 478.664062 487.289062 C 486.578125 485.527344 490.339844 482.269531 491.21875 476.410156 C 492.472656 468.050781 487.71875 462.554688 476.839844 459.78125 C 461.4375 455.855469 460.179688 455.15625 460.179688 450.488281 C 460.179688 446.6875 462.75 445.03125 469.289062 444.613281 C 473.238281 444.359375 474.964844 444.648438 477.835938 446.039062 C 481.664062 447.894531 484.523438 452.058594 484.523438 455.785156 C 484.523438 460.082031 486.003906 458.269531 486.863281 452.917969 C 487.367188 449.785156 487.957031 446.597656 488.171875 445.835938 C 488.460938 444.804688 487.785156 444.109375 485.5625 443.148438 C 481.296875 441.308594 464.882812 440.90625 460.605469 442.535156 M 416.207031 442.382812 C 416.207031 442.554688 417.621094 443.632812 419.347656 444.773438 L 422.488281 446.851562 L 422.488281 482.050781 L 420.613281 483.484375 C 419.578125 484.269531 418.097656 485.292969 417.320312 485.757812 C 415.039062 487.117188 416.765625 487.292969 428.289062 486.878906 L 439.191406 486.484375 L 433.089844 482.546875 L 432.699219 462.53125 L 432.304688 442.511719 L 424.257812 442.289062 C 419.828125 442.164062 416.207031 442.207031 416.207031 442.382812 M 325.515625 446.28125 C 320.492188 449.125 318.640625 453.351562 318.214844 462.960938 C 317.785156 472.609375 319.078125 477.429688 323.167969 481.390625 C 325.496094 483.648438 326.542969 484.070312 330.414062 484.320312 C 333.984375 484.546875 335.488281 484.265625 337.542969 482.972656 C 342.933594 479.59375 346.046875 467.433594 344.019531 457.675781 C 341.757812 446.785156 333.550781 441.730469 325.515625 446.28125 M 300.816406 514.8125 C 297.332031 516.324219 297.355469 516.289062 298.390625 518.222656 C 299.214844 519.761719 299.414062 519.792969 301.546875 518.691406 C 303.914062 517.464844 306.292969 517.800781 306.253906 519.351562 C 306.238281 519.847656 304.332031 522.316406 302.015625 524.839844 C 296.179688 531.191406 296.492188 531.972656 304.976562 532.253906 L 311.773438 532.480469 L 311.773438 530.488281 C 311.773438 528.640625 311.507812 528.496094 308.140625 528.496094 L 304.507812 528.496094 L 307.65625 525.074219 C 309.390625 523.195312 311.046875 520.910156 311.335938 520 C 312.027344 517.816406 310.585938 515.253906 308.140625 514.324219 C 305.5 513.320312 304.035156 513.417969 300.816406 514.8125 M 318.292969 515.109375 C 315.453125 516.84375 314.4375 520.203125 315.152344 525.519531 C 315.71875 529.734375 317.8125 531.710938 322.25 532.210938 C 325.460938 532.574219 326.082031 532.367188 328.226562 530.222656 C 330.328125 528.121094 330.617188 527.289062 330.617188 523.398438 C 330.617188 518.160156 329.804688 516.363281 326.707031 514.761719 C 323.640625 513.175781 321.3125 513.273438 318.292969 515.113281 M 336.3125 514.746094 C 333.761719 515.855469 333.226562 517.019531 334.414062 518.886719 C 334.910156 519.671875 335.585938 519.609375 337.617188 518.597656 C 339.9375 517.4375 340.308594 517.433594 341.402344 518.527344 C 342.5 519.621094 342.1875 520.195312 338.1875 524.386719 C 335.605469 527.09375 333.757812 529.738281 333.757812 530.726562 C 333.757812 532.335938 334.109375 532.421875 340.828125 532.421875 C 347.839844 532.421875 347.894531 532.40625 347.894531 530.457031 C 347.894531 528.65625 347.605469 528.496094 344.359375 528.496094 C 342.417969 528.496094 340.828125 528.269531 340.828125 527.992188 C 340.828125 527.71875 342.238281 525.960938 343.96875 524.085938 C 348.074219 519.628906 348.152344 516.550781 344.214844 514.476562 C 341.96875 513.296875 339.453125 513.378906 336.3125 514.746094 M 349.238281 514.0625 C 347.996094 515.304688 348.761719 517.351562 350.640625 517.824219 C 352.554688 518.304688 352.605469 518.5 352.605469 525.367188 L 352.605469 532.421875 L 357.367188 532.421875 L 356.921875 513.96875 L 353.359375 513.734375 C 351.402344 513.609375 349.546875 513.753906 349.238281 514.0625 M 280.5625 514.945312 C 280.019531 515.128906 279.578125 515.964844 279.578125 516.804688 C 279.578125 517.648438 279.050781 518.539062 278.402344 518.789062 C 277.753906 519.035156 277.222656 519.910156 277.222656 520.726562 C 277.222656 521.542969 277.753906 522.210938 278.402344 522.210938 C 279.304688 522.210938 279.578125 523.214844 279.578125 526.503906 C 279.578125 531.285156 280.921875 532.734375 284.917969 532.273438 C 287.628906 531.960938 288.542969 528.496094 285.917969 528.496094 C 284.550781 528.496094 284.289062 528.003906 284.289062 525.445312 C 284.289062 523.054688 284.628906 522.308594 285.859375 521.984375 C 286.726562 521.757812 287.429688 521.011719 287.429688 520.324219 C 287.429688 519.59375 286.773438 519.070312 285.859375 519.070312 C 284.730469 519.070312 284.289062 518.546875 284.289062 517.199219 C 284.289062 515.332031 282.546875 514.277344 280.5625 514.945312 M 267.023438 518.195312 C 264.90625 518.792969 263.328125 522.007812 264.125 524.089844 C 264.582031 525.28125 266.011719 526.097656 269.699219 527.277344 C 270.804688 527.632812 270.972656 527.992188 270.332031 528.632812 C 269.691406 529.273438 268.800781 529.234375 266.988281 528.484375 C 264.910156 527.621094 264.402344 527.636719 263.804688 528.566406 C 262.027344 531.351562 270.269531 533.8125 273.347656 531.414062 C 276.644531 528.84375 275.3125 524.351562 270.96875 523.394531 C 267.558594 522.648438 267.910156 521.125 271.34375 521.769531 C 273.484375 522.171875 274.210938 522.003906 274.589844 521.019531 C 274.859375 520.320312 274.765625 519.460938 274.382812 519.101562 C 273.304688 518.089844 269.1875 517.582031 267.023438 518.195312 M 320.4375 519.019531 C 318.539062 522.570312 319.992188 528.496094 322.765625 528.496094 C 324.632812 528.496094 325.90625 526.261719 325.90625 522.996094 C 325.90625 519.734375 324.632812 517.5 322.765625 517.5 C 321.933594 517.5 320.886719 518.183594 320.4375 519.019531 M 248.992188 519.667969 C 247.953125 520.511719 247.121094 522.296875 246.859375 524.238281 C 246.503906 526.878906 246.773438 527.820312 248.410156 529.726562 C 250.121094 531.714844 250.9375 532.027344 254.414062 532.027344 C 257.027344 532.027344 258.675781 531.640625 259.121094 530.921875 C 260.371094 528.894531 259.175781 527.8125 255.847656 527.960938 C 253.789062 528.050781 252.527344 527.730469 252.289062 527.054688 C 252.039062 526.347656 252.527344 526.054688 253.777344 526.15625 C 254.796875 526.242188 256.953125 526.273438 258.570312 526.226562 C 261.171875 526.148438 261.472656 525.9375 261.179688 524.371094 C 261 523.402344 260.824219 522.339844 260.792969 522.015625 C 260.761719 521.691406 260.027344 520.722656 259.164062 519.855469 C 257.125 517.820312 251.40625 517.714844 248.992188 519.667969 M 252.097656 522.605469 C 251.261719 523.609375 251.480469 523.785156 253.570312 523.785156 C 255.226562 523.785156 256.023438 523.402344 256.023438 522.605469 C 256.023438 521.957031 255.359375 521.425781 254.546875 521.425781 C 253.738281 521.425781 252.632812 521.957031 252.097656 522.605469 " fill-opacity="1" fill-rule="evenodd"/></svg>